<svg width="126" height="107" viewBox="0 0 126 107" fill="none" xmlns="http://www.w3.org/2000/svg">
<g clip-path="url(#clip0_200_766)">
<path d="M16.2851 57.6856C15.7903 66.4975 19.6518 78.0174 20.9426 80.1774C21.3728 80.8867 21.588 81.7249 21.5665 82.5738C21.4589 87.0442 24.148 89.086 26.1164 89.978C27.2888 90.5153 28.1601 91.6006 28.429 92.9547C29.9457 100.821 38.3034 99.2734 43.0792 97.6937C45.1229 97.0167 47.371 97.812 48.5649 99.5958C48.9629 99.7248 49.2318 100.552 49.6406 100.67L50.7162 101.122C51.7058 105.528 61.7415 105.678 63.6238 104.969C64.3015 104.711 70.4541 104.797 71.1533 104.969C72.0998 105.205 73.5412 105.915 74.3802 106.044C77.2306 106.463 80.9416 103.948 82.9853 101.745C84.2223 100.402 84.3513 99.5098 85.1366 98.5212C85.7174 97.7797 88.5463 97.597 89.4391 97.4466C96.6674 96.2537 97.3665 92.5678 98.0442 89.9242C98.3561 88.6884 101.239 88.2156 102.347 87.775C112.436 83.7667 107.736 74.2885 106.649 70.581C106.294 69.3775 108.585 71.2473 109.231 70.1942C115.276 60.2862 108.639 60.9739 109.876 58.7602C110.78 57.1483 110.952 49.0886 108.801 45.8648C107.822 44.3925 108.747 43.0063 107.725 41.5663L102.347 37.2678C101.282 33.6893 99.4855 30.7019 96.9686 29.7455C93.2576 28.3377 88.7937 29.2619 89.4391 22.2231C89.8371 17.8387 85.4162 19.0852 81.9096 16.85C79.1022 15.0661 76.0689 13.9808 73.3046 14.7008C70.5402 15.4208 68.0339 17.9246 64.6995 17.9246C61.7737 17.9246 61.1068 14.9049 58.2457 14.7008C53.1902 14.3354 52.7707 15.6464 48.5649 17.9246C47.7905 17.0434 39.7662 19.6333 38.8842 20.0739C36.7329 21.1485 35.227 24.2541 33.506 25.447C30.5588 27.478 28.9561 25.1998 28.1278 26.5216C27.3534 27.7574 26.1487 30.8846 24.9009 30.8201C21.7601 30.6589 20.1789 32.1848 19.996 35.2583C19.9207 36.5478 19.6088 37.8803 18.8236 38.697C17.7695 39.7932 17.834 45.7573 18.4364 48.014C18.2965 48.3686 19.4905 48.3686 19.3507 48.7233C16.9843 50.0988 16.554 55.3429 16.2851 58.7602" fill="#89A45F"/>
<path d="M41.3905 23.3192C41.3905 23.3192 40.4225 16.087 45.7254 18.0321C46.758 18.4082 47.8659 18.3222 48.7802 17.7204C51.523 15.9258 57.5251 12.8632 61.8707 16.9037C63.0861 18.0321 64.7426 18.2578 66.0871 17.441C70.0025 15.0661 77.6287 11.4984 82.0173 16.5706C82.5982 17.2369 83.2973 17.7742 84.0933 17.9569C85.9757 18.3867 89.4392 19.8374 89.6866 24.7915C89.7511 26.0058 90.2782 27.1126 91.1387 27.8649C92.3219 28.9072 93.6234 30.8308 92.7306 33.9472" stroke="#231F20" stroke-width="2" stroke-miterlimit="10" stroke-linecap="round"/>
<path d="M102.336 37.2678C102.336 37.2678 103.358 37.7729 103.993 39.1377C104.455 40.1371 105.391 40.8248 106.488 40.8785C107.585 40.9323 108.79 41.9209 108.79 45.8648" stroke="#231F20" stroke-width="2" stroke-miterlimit="10" stroke-linecap="round"/>
<path d="M110.554 52.6241C110.554 52.6241 110.941 56.611 109.64 58.7602C108.403 60.7913 114.2 60.8987 108.155 70.033C107.51 71.0109 107.316 72.2037 107.671 73.3213C108.758 76.7386 109.941 84.5296 99.8513 88.2156C98.7434 88.6239 97.8721 89.5266 97.5602 90.6657C96.8825 93.1051 94.6667 97.2531 87.4492 98.36C86.5564 98.4997 85.7497 98.9403 85.1689 99.6281C84.3836 100.541 83.2004 101.885 81.9527 103.121C79.909 105.152 77.0586 106.13 74.1974 105.743C73.3584 105.624 72.4333 105.474 71.4868 105.259C70.7876 105.098 70.0562 105.152 69.3785 105.388C67.4962 106.044 63.5271 106.892 62.5375 102.83" stroke="#231F20" stroke-width="2" stroke-miterlimit="10" stroke-linecap="round"/>
<path d="M39.9492 97.4466C39.9492 97.4466 29.494 101.24 27.3427 90.9988C27.0846 89.7523 26.2025 88.7529 25.0301 88.2585C23.0617 87.4311 20.3726 85.5505 20.4802 81.4347C20.5017 80.6502 20.2865 79.8765 19.8563 79.221C18.0385 76.4055 13.9941 68.4963 22.7282 64.1333" stroke="#231F20" stroke-width="2" stroke-miterlimit="10" stroke-linecap="round"/>
<path d="M36.7223 27.7467C32.5703 22.8464 28.4183 26.8655 26.3101 29.7133C25.4926 30.8201 24.3309 31.5831 23.0832 31.5186C19.9423 31.3682 19.1033 35.0112 18.9205 37.8374C18.8452 39.0195 18.5333 40.2553 17.748 40.9968C16.866 41.8457 17.705 45.6714 18.3504 48.1C18.6623 49.2499 18.4364 50.4535 17.8018 51.4636C17.3608 52.1621 16.9306 53.1722 16.7369 54.5263" stroke="#231F20" stroke-width="2" stroke-miterlimit="10" stroke-linecap="round"/>
<path d="M13.0582 56.611C13.0582 56.611 15.2095 58.7602 20.5877 59.8348" stroke="#231F20" stroke-width="2" stroke-miterlimit="10" stroke-linecap="round"/>
<path d="M13.4025 61.7369C13.4025 61.7369 15.4354 62.7686 17.5759 62.242" stroke="#231F20" stroke-width="2" stroke-miterlimit="10" stroke-linecap="round"/>
<path d="M99.9158 26.9729C99.9158 26.9729 98.0335 29.7454 99.1091 32.9693" stroke="#231F20" stroke-width="2" stroke-miterlimit="10" stroke-linecap="round"/>
<path d="M35.6466 18.9993C35.6466 18.9993 38.6046 20.4285 37.8301 23.1688" stroke="#231F20" stroke-width="2" stroke-miterlimit="10" stroke-linecap="round"/>
<path d="M49.9203 98.1343C49.9203 98.1343 47.4894 100.67 47.4894 103.894" stroke="#231F20" stroke-width="2" stroke-miterlimit="10" stroke-linecap="round"/>
<path d="M52.8568 98.5212C52.8568 98.5212 50.9852 102.82 51.3832 103.894" stroke="#231F20" stroke-width="2" stroke-miterlimit="10" stroke-linecap="round"/>
<path d="M67.7328 67.0564C67.7328 67.0564 78.7903 78.7268 68.1953 91.3536" stroke="black" stroke-width="2" stroke-miterlimit="10" stroke-linecap="round"/>
<path d="M72.7775 67.0564C72.7775 67.0564 71.1426 70.5812 71.1426 71.6558" stroke="black" stroke-width="2" stroke-miterlimit="10" stroke-linecap="round"/>
<path d="M71.9708 85.7655C71.9708 85.7655 72.4656 89.935 75.4451 90.9989" stroke="black" stroke-width="2" stroke-miterlimit="10" stroke-linecap="round"/>
<path d="M6.30319 50.5394C6.30319 50.5394 4.95865 55.7621 5.75462 58.6313" stroke="black" stroke-width="2" stroke-miterlimit="10" stroke-linecap="round"/>
<path d="M1.88242 50.8511C1.88242 50.8511 0.537872 56.0737 1.33384 58.943" stroke="black" stroke-width="2" stroke-miterlimit="10" stroke-linecap="round"/>
<path d="M118.567 59.7811C118.567 59.7811 120.805 66.0247 118.567 68.8402" stroke="black" stroke-width="2" stroke-miterlimit="10" stroke-linecap="round"/>
<path d="M123.849 60.9095C123.849 60.9095 124.924 65.5627 123.849 68.0773" stroke="black" stroke-width="2" stroke-miterlimit="10" stroke-linecap="round"/>
<path fill-rule="evenodd" clip-rule="evenodd" d="M124.967 13.4757C124.569 13.2285 124.075 13.0781 123.537 13.0781C122.182 13.0781 121.063 14.0453 121.063 15.2488C121.063 16.4524 122.171 17.4196 123.537 17.4196C124.903 17.4196 126 16.4524 126.011 15.2488V10.0047V6.57664C126.011 6.41545 125.946 6.265 125.828 6.15754C125.71 6.05008 125.548 6.00709 125.387 6.01784L117.169 7.09246C116.889 7.1247 116.685 7.36111 116.685 7.64051V10.8966V14.3999C116.244 14.1205 115.685 13.9593 115.093 13.9593C113.576 13.9593 112.35 15.0339 112.35 16.3664C112.35 17.699 113.587 18.7736 115.093 18.7736C116.599 18.7736 117.825 17.699 117.836 16.3664V11.5414L124.978 10.6172V13.4865L124.967 13.4757Z" fill="black"/>
<path fill-rule="evenodd" clip-rule="evenodd" d="M24.2663 2.37487L18.4041 0.075177C18.1029 -0.0537775 17.7587 -0.0107927 17.4791 0.182639C17.1994 0.365325 17.0488 0.676965 17.0488 0.999351V6.79156C16.6938 6.6626 16.2851 6.59813 15.8764 6.59813C14.1338 6.59813 12.714 7.84469 12.714 9.37065C12.714 10.8966 14.1338 12.1432 15.8764 12.1432C17.6189 12.1432 19.0387 10.8966 19.0387 9.37065V2.46084L23.5349 4.23396C24.0512 4.43814 24.632 4.18023 24.8257 3.66441C25.0515 3.17008 24.7826 2.58979 24.2771 2.37487H24.2663Z" fill="black"/>
</g>
<defs>
<clipPath id="clip0_200_766">
<rect width="126" height="107" fill="white"/>
</clipPath>
</defs>
</svg>
